<!DOCTYPE svg PUBLIC "-//W3C//DTD SVG 20010904//EN" "http://www.w3.org/TR/2001/REC-SVG-20010904/DTD/svg10.dtd">
<svg version="1.0" xmlns="http://www.w3.org/2000/svg" width="1080px" height="1080px" viewBox="0 0 10800 10800" preserveAspectRatio="xMidYMid meet">
<g id="layer101" fill="#020202" stroke="none">
 <path d="M2465 5610 c-134 -9 -210 -50 -262 -137 -67 -114 -88 -259 -80 -536 10 -336 57 -454 209 -522 107 -48 325 -47 423 2 97 49 175 162 194 283 14 86 14 492 0 583 -25 160 -125 279 -267 318 -37 11 -80 18 -97 17 -16 -1 -70 -4 -120 -8z m162 -247 c54 -25 75 -84 83 -235 4 -71 4 -189 0 -263 -6 -113 -11 -140 -32 -177 -30 -55 -74 -77 -155 -78 -56 0 -66 3 -98 31 -21 18 -40 48 -47 72 -14 48 -18 463 -5 538 20 115 136 166 254 112z"/>
 <path d="M5380 5611 c-145 -12 -225 -63 -278 -178 -50 -109 -66 -235 -59 -488 5 -221 20 -314 66 -403 31 -61 104 -119 179 -142 89 -28 245 -28 335 0 119 37 209 145 238 288 19 89 7 99 -125 104 l-99 3 -17 -54 c-10 -29 -27 -65 -37 -79 -27 -36 -86 -54 -160 -50 -113 7 -132 45 -144 278 -9 186 3 365 27 417 26 54 65 75 139 75 94 -1 143 -32 171 -109 7 -21 13 -53 14 -70 l0 -33 -74 0 c-109 0 -106 3 -106 -106 0 -130 -4 -128 225 -119 129 6 178 11 186 21 8 10 10 67 7 188 l-4 174 -37 75 c-84 169 -209 227 -447 208z"/>
 <path d="M1760 5603 c-36 -2 -69 -8 -73 -12 -5 -5 -8 -269 -8 -587 2 -678 -11 -614 125 -614 52 0 89 5 100 13 17 13 18 44 15 594 -4 635 -2 615 -63 611 -17 -1 -60 -3 -96 -5z"/>
 <path d="M6715 5605 c-5 -2 -23 -6 -38 -10 -39 -8 -121 -87 -156 -149 -16 -28 -50 -100 -75 -161 -61 -146 -79 -175 -111 -175 l-25 0 -2 133 c-1 72 -3 175 -3 228 0 127 -2 129 -121 129 -54 0 -96 -4 -99 -11 -4 -5 -8 -269 -8 -585 l-2 -576 24 -19 c21 -17 41 -19 215 -19 230 0 330 15 418 62 72 38 107 86 133 183 22 80 16 176 -15 258 -27 71 -88 133 -177 178 -34 18 -63 37 -63 43 0 6 23 56 50 112 61 123 97 159 169 169 62 8 81 31 81 97 0 62 -29 97 -90 109 -46 8 -87 10 -105 4z m-152 -726 c70 -19 95 -101 55 -179 -36 -69 -71 -84 -198 -85 l-105 0 -3 124 c-1 69 0 131 2 138 7 16 192 18 249 2z"/>
 <path d="M8180 5601 l-75 -6 -3 -105 c-2 -58 0 -322 3 -588 6 -402 10 -485 22 -497 19 -19 162 -21 185 -2 25 20 130 202 213 370 73 149 95 183 102 161 16 -48 289 -515 311 -531 9 -8 46 -13 88 -13 125 0 113 -59 119 606 4 446 2 574 -8 587 -9 12 -36 18 -108 23 -91 6 -97 6 -108 -14 -7 -14 -11 -128 -11 -352 0 -193 -4 -329 -9 -326 -8 5 -57 90 -167 290 -59 106 -70 118 -113 114 -28 -2 -41 -12 -67 -48 -18 -25 -33 -48 -33 -52 -1 -4 -34 -63 -74 -130 -41 -68 -81 -136 -90 -153 -15 -28 -16 -15 -17 230 -2 404 -9 448 -65 443 -11 -1 -54 -4 -95 -7z"/>
 <path d="M3371 5577 c-5 -13 -7 -226 -4 -485 l5 -462 -125 0 c-115 0 -127 -2 -137 -19 -16 -31 -13 -187 5 -204 22 -22 731 -19 745 3 16 26 12 173 -6 198 -14 21 -23 22 -130 22 l-114 0 -2 298 c0 163 -2 373 -3 465 -3 212 0 207 -132 207 -89 0 -94 -1 -102 -23z"/>
 <path d="M4026 5585 c-13 -14 -15 -61 -11 -369 7 -498 23 -620 98 -718 77 -100 171 -133 367 -126 153 5 210 26 268 97 104 126 113 183 107 706 -2 204 -4 375 -5 382 -1 32 -31 43 -119 43 -132 0 -127 9 -123 -208 l4 -180 -54 -7 c-29 -3 -109 -5 -178 -3 l-125 3 -5 181 c-4 133 -9 185 -19 198 -19 23 -182 23 -205 1z m591 -712 c-14 -218 -61 -279 -211 -271 -64 4 -71 6 -96 37 -16 18 -31 45 -34 59 -10 44 -19 239 -13 256 6 14 30 16 183 16 l177 0 -6 -97z"/>
 <path d="M7072 5587 c-26 -31 -7 -805 23 -932 37 -160 115 -244 257 -275 85 -19 290 -9 348 17 56 25 121 91 154 158 43 85 48 158 47 600 -2 360 -4 412 -18 427 -23 26 -194 26 -214 1 -11 -12 -14 -58 -14 -192 l0 -175 -25 -7 c-14 -4 -93 -7 -177 -8 l-151 -1 -4 183 c-2 137 -6 188 -17 200 -11 14 -32 17 -106 17 -63 0 -96 -4 -103 -13z m591 -624 c2 -5 0 -58 -4 -120 -11 -187 -55 -242 -195 -243 -111 0 -140 43 -156 227 -10 106 -9 126 3 134 17 11 346 12 352 2z"/>
 </g>

</svg>